<svg width="16" height="15" viewBox="0 0 16 15" fill="none" xmlns="http://www.w3.org/2000/svg">
<path d="M7.69684 0C7.6917 0 7.68655 0 7.68141 0C7.36793 0.000615478 7.11511 0.250588 7.11511 0.555894V1.70101C7.11511 2.00974 7.37343 2.25675 7.69031 2.25675C7.69055 2.25675 7.69073 2.25675 7.69097 2.25675C7.69293 2.25675 7.69492 2.25675 7.69687 2.25675C10.6715 2.25675 13.083 4.60557 13.083 7.50297C13.083 7.50813 13.083 7.51326 13.083 7.51839C13.082 7.82739 13.3362 8.07935 13.6534 8.07935H14.8291C15.1426 8.07935 15.3988 7.8331 15.3998 7.5278C15.3999 7.51953 15.3999 7.51124 15.3999 7.50294C15.3999 3.35919 11.9511 0 7.69684 0Z" fill="white"/>
<path d="M7.11627 5.51651C5.67156 5.51651 4.49622 6.66133 4.49622 8.06852C4.49622 9.47568 5.67156 10.6205 7.11627 10.6205C8.56098 10.6205 9.73633 9.47568 9.73633 8.06852C9.73633 6.66133 8.56098 5.51651 7.11627 5.51651ZM7.11627 9.40563C6.35933 9.40563 5.74351 8.8058 5.74351 8.06852C5.74351 7.33123 6.35933 6.73138 7.11627 6.73138C7.87322 6.73138 8.48904 7.3312 8.48904 8.06852C8.48904 8.80583 7.87322 9.40563 7.11627 9.40563Z" fill="white"/>
<path d="M12.6114 8.53737C12.3322 8.26456 12.1791 7.90178 12.1802 7.51561L12.1803 7.50298C12.1803 5.09503 10.169 3.13602 7.69687 3.13602H7.69251H7.69109H7.69031C6.87541 3.13602 6.21241 2.49229 6.21241 1.70101V1.19269C2.71367 1.6266 0 4.54467 0 8.06852C0 11.8906 3.19234 15 7.11628 15C10.7306 15 13.7242 12.3618 14.1741 8.95865H13.6534C13.2595 8.95865 12.8895 8.80903 12.6114 8.53737ZM7.11628 11.4998C5.17382 11.4998 3.59353 9.9605 3.59353 8.06852C3.59353 6.17651 5.17382 4.63726 7.11628 4.63726C9.05874 4.63726 10.639 6.17651 10.639 8.06852C10.639 9.9605 9.05874 11.4998 7.11628 11.4998Z" fill="white"/>
<path d="M7.11631 7.61063C6.85711 7.61063 6.64624 7.81602 6.64624 8.06851C6.64624 8.32101 6.85711 8.52637 7.11631 8.52637C7.3755 8.52637 7.58637 8.32098 7.58637 8.06851C7.58637 7.81605 7.3755 7.61063 7.11631 7.61063Z" fill="white"/>
</svg>
