<svg width="15" height="15" viewBox="0 0 15 15" fill="none" xmlns="http://www.w3.org/2000/svg">
<path d="M9.16669 7.5C10.5474 7.5 11.6667 6.10089 11.6667 4.375C11.6667 2.64911 10.5474 1.25 9.16669 1.25C7.78598 1.25 6.66669 2.64911 6.66669 4.375C6.66669 6.10089 7.78598 7.5 9.16669 7.5Z" fill="white"/>
<path d="M5.1961 7.42725C4.56843 7.2823 3.99893 6.92734 3.53613 6.423C1.45857 7.53996 0 10.1234 0 13.125C0 13.4702 0.223867 13.75 0.5 13.75H2.3517C2.50303 11.1472 3.5914 8.8643 5.1961 7.42725Z" fill="white"/>
<path d="M5.83337 6.25C5.89007 6.25 5.94614 6.24675 6.00191 6.24213C5.78711 5.6755 5.66671 5.04254 5.66671 4.375C5.66671 2.79542 6.33991 1.40879 7.34644 0.639542C6.92608 0.238708 6.40171 0 5.83337 0C4.45487 0 3.33337 1.40188 3.33337 3.125C3.33337 4.84813 4.45487 6.25 5.83337 6.25Z" fill="white"/>
<path d="M9.16671 8.75C8.28841 8.75 7.48471 8.34342 6.86951 7.673C4.79194 8.78996 3.33337 11.3734 3.33337 14.375C3.33337 14.7202 3.55724 15 3.83337 15H14.5C14.7762 15 15 14.7202 15 14.375C15 11.3734 13.5415 8.78996 11.4639 7.673C10.8487 8.34342 10.045 8.75 9.16671 8.75Z" fill="white"/>
</svg>
