<svg width="16" height="15" viewBox="0 0 16 15" fill="none" xmlns="http://www.w3.org/2000/svg">
<path d="M15.3109 1.12943e-06H0.689296C0.431248 -0.000445018 0.194826 0.131317 0.0769405 0.341154C-0.0425712 0.553816 -0.0215957 0.809904 0.131087 1.00413L5.48781 7.90584C5.4896 7.90822 5.49155 7.91045 5.49334 7.91283C5.68798 8.15316 5.79334 8.44434 5.79383 8.74341V14.3703C5.79269 14.5369 5.86424 14.6971 5.99253 14.8153C6.12098 14.9334 6.29562 15 6.47773 15C6.57025 14.9999 6.66196 14.983 6.74748 14.9505L9.75755 13.9008C10.0271 13.8254 10.2062 13.5927 10.2062 13.3125V8.74341C10.2067 8.44434 10.312 8.15316 10.5065 7.91283C10.5083 7.91045 10.5102 7.90822 10.512 7.90584L15.8689 1.00398C16.0216 0.809904 16.0426 0.553965 15.9231 0.341302C15.8053 0.131317 15.5688 -0.000445018 15.3109 1.12943e-06Z" fill="white"/>
</svg>
