<svg width="15" height="15" viewBox="0 0 15 15" fill="none" xmlns="http://www.w3.org/2000/svg">
<path d="M4.28576 0.536524V3.21494C4.28576 3.35701 4.22932 3.49326 4.12886 3.59372C4.02839 3.69419 3.89213 3.75062 3.75005 3.75062H0.535779C0.425683 3.75058 0.318275 3.71661 0.228171 3.65335C0.138067 3.59009 0.0696428 3.5006 0.0322101 3.39707C-0.0054381 3.29347 -0.0102065 3.18077 0.0185553 3.07436C0.0473171 2.96795 0.108209 2.873 0.192924 2.80246L3.40719 0.124048C3.48548 0.0588456 3.58074 0.017318 3.68179 0.00433638C3.78284 -0.0086452 3.8855 0.00745759 3.97773 0.050756C4.06995 0.0940543 4.14792 0.162753 4.20248 0.248792C4.25704 0.334832 4.28593 0.434646 4.28576 0.536524ZM15 6.96472V13.3929C15 13.8191 14.8307 14.2279 14.5293 14.5293C14.2279 14.8307 13.8191 15 13.3929 15H9.10717C8.68093 15 8.27215 14.8307 7.97075 14.5293C7.66936 14.2279 7.50003 13.8191 7.50003 13.3929V6.96472C7.50003 6.53851 7.66936 6.12975 7.97075 5.82837C8.27215 5.52699 8.68093 5.35767 9.10717 5.35767H13.3929C13.8191 5.35767 14.2279 5.52699 14.5293 5.82837C14.8307 6.12975 15 6.53851 15 6.96472ZM10.7143 11.7859H9.64288V12.8572H10.7143V11.7859ZM10.7143 9.64314H9.64288V10.7145H10.7143V9.64314ZM12.8572 11.7859H11.7857V12.8572H12.8572V11.7859ZM12.8572 9.64314H11.7857V10.7145H12.8572V9.64314ZM12.8572 7.50041H9.64288V8.57177H12.8572V7.50041ZM11.7857 1.60789V4.82199H9.10717C8.53885 4.82199 7.99381 5.04774 7.59195 5.44958C7.19009 5.85142 6.96432 6.39643 6.96432 6.96472V13.3929C6.96271 13.5738 6.98614 13.7541 7.03396 13.9286H1.6072C1.18096 13.9286 0.772183 13.7593 0.470787 13.4579C0.16939 13.1565 6.74241e-05 12.7478 6.74241e-05 12.3216V4.28631H3.75005C4.03421 4.28631 4.30673 4.17343 4.50766 3.97251C4.70859 3.77159 4.82147 3.49908 4.82147 3.21494V0.000840896H10.1786C10.6048 0.000840896 11.0136 0.170155 11.315 0.471535C11.6164 0.772915 11.7857 1.18167 11.7857 1.60789ZM5.8929 9.10745H1.6072V10.1788H5.8929V9.10745ZM5.8929 6.42904H1.6072V7.50041H5.8929V6.42904Z" fill="white"/>
</svg>
