<svg width="15" height="14" viewBox="0 0 15 14" fill="none" xmlns="http://www.w3.org/2000/svg">
<path d="M11.796 0.783008C11.6632 0.546611 11.474 0.350229 11.247 0.212996C11.02 0.0757637 10.7628 0.0023605 10.5006 -6.10352e-05H4.49938C4.23717 0.0023605 3.98002 0.0757637 3.75301 0.212996C3.52599 0.350229 3.33685 0.546611 3.204 0.783008L0.203376 6.21687C0.0701421 6.45817 0 6.73189 0 7.01052C0 7.28915 0.0701421 7.56287 0.203376 7.80417L3.204 13.2169C3.33685 13.4533 3.52599 13.6496 3.75301 13.7869C3.98002 13.9241 4.23717 13.9975 4.49938 13.9999H10.5006C10.7628 13.9975 11.02 13.9241 11.247 13.7869C11.474 13.6496 11.6632 13.4533 11.796 13.2169L14.7966 7.78301C14.9299 7.54171 15 7.26799 15 6.98936C15 6.71073 14.9299 6.43701 14.7966 6.19571L11.796 0.783008ZM10.03 6.99994C10.03 7.52317 9.88165 8.03465 9.60365 8.4697C9.32564 8.90475 8.93051 9.24383 8.4682 9.44407C8.0059 9.6443 7.49719 9.69669 7.00641 9.59461C6.51564 9.49253 6.06483 9.24057 5.71099 8.87059C5.35716 8.50061 5.1162 8.02923 5.01858 7.51605C4.92096 7.00287 4.97106 6.47095 5.16255 5.98755C5.35404 5.50415 5.67833 5.09098 6.09439 4.80028C6.51045 4.50959 6.99961 4.35444 7.5 4.35444C8.17101 4.35444 8.81453 4.63316 9.28901 5.12929C9.76348 5.62541 10.03 6.29831 10.03 6.99994Z" fill="white"/>
</svg>
